<svg width="40" height="40" viewBox="0 0 40 40" fill="none" xmlns="http://www.w3.org/2000/svg">
<path d="M8.09943 30.5997L8.0992 30.5995C7.22647 29.9488 6.42586 28.9211 5.84306 27.7595C5.26022 26.5978 4.91699 25.3456 4.91699 24.2671V11.8671C4.91699 9.50785 6.67182 6.96225 8.89149 6.13562L8.89245 6.13526L17.2087 3.01875C17.2088 3.01872 17.2089 3.01869 17.2089 3.01866C17.9624 2.7371 18.9619 2.58789 19.9837 2.58789C21.0054 2.58789 22.0049 2.73711 22.7584 3.01868C22.7585 3.0187 22.7586 3.01873 22.7586 3.01875L31.0749 6.13526L31.0758 6.13562C33.2955 6.96225 35.0503 9.50785 35.0503 11.8671V24.2504C35.0503 25.3375 34.7069 26.5897 34.1244 27.7488C33.5419 28.9078 32.7414 29.9318 31.8681 30.5829L31.8679 30.5831L24.7012 35.9331L24.7012 35.933L24.695 35.9378C23.4123 36.9268 21.7243 37.4337 20.0003 37.4337C18.2777 37.4337 16.5855 36.9274 15.2652 35.949C15.265 35.9489 15.2649 35.9488 15.2647 35.9487L8.09943 30.5997ZM17.7422 4.43194L17.7415 4.43219L9.42487 7.54885L9.42416 7.54912C8.59658 7.86068 7.85535 8.52296 7.32443 9.2911C6.79333 10.0595 6.43366 10.9902 6.43366 11.8837V24.2671C6.43366 25.1615 6.74424 26.1897 7.20124 27.1015C7.65813 28.0131 8.29361 28.8727 9.00118 29.401L9.00122 29.4011L16.1675 34.7508C17.2296 35.545 18.6286 35.9254 20.0024 35.9254C21.3764 35.9254 22.7786 35.5449 23.8481 34.752L23.8494 34.7511L31.0161 29.4011L31.017 29.4004C31.7317 28.8643 32.3672 28.0055 32.8225 27.0948C33.2779 26.1842 33.5837 25.1605 33.5837 24.2671V11.8671C33.5837 10.9809 33.2232 10.0542 32.6929 9.28693C32.1624 8.51938 31.4226 7.85445 30.5979 7.53429L30.598 7.53425L30.5925 7.53219L22.2758 4.41552L22.2758 4.41543L22.2667 4.41223C21.6286 4.187 20.8005 4.08363 20.001 4.08581C19.2024 4.08799 18.3755 4.19563 17.7422 4.43194ZM31.2502 5.66748L31.2502 5.66747L31.2502 5.66748Z" fill="#FAFAFA" stroke="#FAFAFA"/>
<path d="M17.4135 21.0531L17.7671 21.4067L18.1206 21.0531L24.4039 14.7698C24.692 14.4817 25.1754 14.4817 25.4635 14.7698C25.7516 15.0578 25.7516 15.5413 25.4635 15.8293L18.2968 22.996C18.1455 23.1473 17.9583 23.2162 17.7671 23.2162C17.5758 23.2162 17.3886 23.1473 17.2373 22.996L14.5539 20.3127C14.2659 20.0246 14.2659 19.5412 14.5539 19.2531C14.842 18.965 15.3254 18.965 15.6135 19.2531L17.4135 21.0531Z" fill="#FAFAFA" stroke="#FAFAFA"/>
</svg>
